<?xml version="1.0" encoding="utf-8"?>
<!-- Generator: Adobe Illustrator 26.3.1, SVG Export Plug-In . SVG Version: 6.00 Build 0)  -->
<svg version="1.1" xmlns="http://www.w3.org/2000/svg" xmlns:xlink="http://www.w3.org/1999/xlink" x="0px" y="0px" width="432px"
	 height="432px" viewBox="0 0 432 432" style="enable-background:new 0 0 432 432;" xml:space="preserve">
<style type="text/css">
	.st0{display:none;}
	.st1{display:inline;fill:#403D32;}
	.st2{fill:#6B451A;}
	.st3{fill:#33210D;}
	.st4{fill:#BF1818;}
	.st5{fill:#5E0C0C;}
	.st6{fill:#D68B8B;}
	.st7{fill:#961313;}
	.st8{fill:#E87E09;}
	.st9{fill:#945106;}
	.st10{fill:#FFCC00;}
	.st11{fill:#9E8328;}
	.st12{fill:#40A128;}
	.st13{fill:#235715;}
	.st14{fill:#368ADB;}
	.st15{fill:#215487;}
	.st16{fill:#9540C7;}
	.st17{fill:#602187;}
	.st18{fill:#AEB9D4;}
	.st19{fill:#4D535E;}
	.st20{fill:#73C420;}
	.st21{fill:#4A7D13;}
	.st22{opacity:0.5;fill:#4A7D13;}
	.st23{fill:#FFCC00;stroke:#9E8328;stroke-width:5;stroke-linejoin:round;stroke-miterlimit:10;}
	.st24{fill:none;stroke:#4A7D13;stroke-width:3;stroke-linecap:round;stroke-miterlimit:10;}
	.st25{opacity:0.5;fill:#FFFFFF;}
	.st26{fill:#A36A27;stroke:#70491C;stroke-width:5;stroke-miterlimit:10;}
	.st27{fill:none;stroke:#805220;stroke-width:3;stroke-linecap:round;stroke-miterlimit:10;}
	.st28{fill:#E09236;}
	.st29{opacity:0.5;fill:#634019;}
	.st30{fill:#4D2E10;stroke:#301800;stroke-width:5;stroke-linejoin:round;stroke-miterlimit:10;}
	.st31{fill:none;stroke:#301800;stroke-width:3;stroke-linecap:round;stroke-miterlimit:10;}
	.st32{opacity:0.3;fill:#33210D;}
	.st33{fill:#A66B28;stroke:#7A4711;stroke-width:4;stroke-linecap:round;stroke-linejoin:round;stroke-miterlimit:10;}
	.st34{opacity:0.3;fill:#FFFF99;}
	.st35{fill:#A12727;stroke:#5E0C0C;stroke-width:5;stroke-linecap:round;stroke-linejoin:round;stroke-miterlimit:10;}
	.st36{fill:#C93838;}
	.st37{fill:#C93838;stroke:#802020;stroke-width:5;stroke-linejoin:round;stroke-miterlimit:10;}
	.st38{fill:none;stroke:#801010;stroke-width:5;stroke-linecap:round;stroke-linejoin:round;stroke-miterlimit:10;}
	.st39{fill:#CC1B1B;}
	.st40{opacity:0.5;}
	.st41{fill:#7A1010;}
	.st42{fill:none;stroke:#801111;stroke-width:2;stroke-linecap:round;stroke-linejoin:round;stroke-miterlimit:10;}
	.st43{opacity:0.25;fill:#FFFFFF;}
	.st44{opacity:0.5;fill:#A10000;}
	.st45{opacity:0.4;}
	.st46{fill:#FFFFFF;}
	.st47{fill:#A12727;}
	.st48{fill:#A12727;stroke:#751D1D;stroke-width:5;stroke-linejoin:round;stroke-miterlimit:10;}
	.st49{fill:none;stroke:#5E0C0C;stroke-width:5;stroke-linecap:round;stroke-linejoin:round;stroke-miterlimit:10;}
	.st50{opacity:0.1;fill:#FFFFFF;}
	.st51{opacity:0.4;fill:#5E0C0C;}
	.st52{fill:none;}
	.st53{fill:none;stroke:#700F0F;stroke-width:2;stroke-linecap:round;stroke-linejoin:round;stroke-miterlimit:10;}
	.st54{opacity:0.15;fill:#FFFFFF;}
	.st55{opacity:0.3;}
	.st56{fill:#FFE51F;}
	.st57{fill:#F7F3E1;}
	.st58{fill:#FF9500;}
	.st59{fill:none;stroke:#EBC688;stroke-width:4;stroke-miterlimit:10;}
	.st60{fill:none;stroke:#EBA800;stroke-width:5;stroke-miterlimit:10;}
	.st61{fill:none;stroke:#A36D33;stroke-width:5;stroke-miterlimit:10;}
	.st62{opacity:0.3;fill:#BD6708;}
	.st63{opacity:0.15;fill:none;stroke:#A36D33;stroke-width:3;stroke-linecap:round;stroke-miterlimit:10;}
	.st64{fill:#FF8D00;stroke:#945106;stroke-width:5;stroke-miterlimit:10;}
	.st65{fill:#5DB347;}
	.st66{fill:#5DB347;stroke:#3E7830;stroke-width:5;stroke-linecap:round;stroke-miterlimit:10;}
	.st67{opacity:0.3;fill:#FFFFFF;}
	.st68{opacity:0.3;fill:#945106;}
	.st69{fill:none;stroke:#945106;stroke-width:4;stroke-linecap:round;stroke-linejoin:round;stroke-miterlimit:10;}
	.st70{opacity:0.4;fill:#3E7830;}
	.st71{fill:#A991B8;}
	.st72{opacity:0.4;fill:#68288F;}
	.st73{fill:none;stroke:#64248C;stroke-width:5;stroke-miterlimit:10;}
	.st74{fill:url(#);}
	.st75{fill:#DDDFE6;stroke:#4D535E;stroke-width:5;stroke-miterlimit:10;}
	.st76{opacity:0.4;fill:#4D535E;}
	.st77{opacity:0.8;fill:#FFFFFF;}
	.st78{opacity:0.6;fill:#4D535E;}
	.st79{fill:#FFFFFF;stroke:#71788A;stroke-width:4;stroke-linecap:round;stroke-linejoin:round;stroke-miterlimit:10;}
	.st80{opacity:0.4;fill:#71788A;}
	.st81{fill:#DEE6F7;stroke:#B3BAC4;stroke-width:4;stroke-miterlimit:10;}
	.st82{fill:#D98484;stroke:#965353;stroke-width:5;stroke-linejoin:round;stroke-miterlimit:10;}
	.st83{fill:#FFF2F2;stroke:#CC9393;stroke-width:5;stroke-miterlimit:10;}
	.st84{fill:#DE8787;}
	.st85{fill:#FFC9C9;}
	.st86{fill:none;stroke:#CC7272;stroke-width:5;stroke-miterlimit:10;}
	.st87{opacity:0.4;fill:none;stroke:#FFFFFF;stroke-width:3;stroke-linecap:round;stroke-linejoin:round;stroke-miterlimit:10;}
	.st88{opacity:0.6;fill:#FFFFFF;}
	.st89{opacity:0.2;fill:#FFFFFF;}
	.st90{opacity:0.4;fill:none;stroke:#FFFFFF;stroke-width:2;stroke-linecap:round;stroke-linejoin:round;stroke-miterlimit:10;}
	.st91{opacity:0.7;fill:#FFFFFF;}
	.st92{opacity:0.4;fill:#B3BAC4;}
	.st93{fill:#368ADB;stroke:#215487;stroke-width:5;stroke-miterlimit:10;}
	.st94{fill:none;stroke:#2969A8;stroke-width:5;stroke-linejoin:round;stroke-miterlimit:10;}
	.st95{opacity:0.4;fill:#FFFFFF;}
	.st96{fill:none;stroke:#2969A8;stroke-width:5;stroke-miterlimit:10;}
	.st97{opacity:0.5;fill:#215487;}
	.st98{opacity:0.4;fill:#215487;}
	.st99{fill:none;stroke:#215487;stroke-width:5;stroke-miterlimit:10;}
	.st100{fill:none;stroke:#006AFF;stroke-width:20;stroke-miterlimit:10;}
	.st101{fill:#006AFF;}
	.st102{fill:none;stroke:#006AFF;stroke-width:30;stroke-miterlimit:10;}
	.st103{fill:url(#SVGID_1_);}
	.st104{fill:#012F30;}
	.st105{fill:#07999E;}
	.st106{fill:#09CFD6;}
	.st107{fill:url(#SVGID_00000103259345702309185290000016379739996271891611_);}
	.st108{fill:#A8FCFF;}
	.st109{fill:#35D6DB;}
	.st110{fill:url(#SVGID_00000166634197563025932240000011277725620157193643_);}
	.st111{fill:url(#SVGID_00000062888824870774220460000005975439078358628756_);}
	.st112{fill:url(#SVGID_00000155118744121186359240000011034639706739148702_);}
	.st113{fill:url(#SVGID_00000145769298178546698500000008828021285936997036_);}
	.st114{fill:url(#SVGID_00000065050066206459768910000006490585436606219452_);}
	.st115{fill:#083001;}
	.st116{fill:#1E9E07;}
	.st117{fill:#28D609;}
	.st118{fill:url(#SVGID_00000142144130363434885720000006991641153918997908_);}
	.st119{fill:url(#SVGID_00000039850166072710575010000015105502200305898888_);}
	.st120{fill:#B5FFA8;}
	.st121{fill:#4EDB35;}
	.st122{display:inline;opacity:0.15;}
	.st123{display:inline;opacity:0.1;}
	.st124{display:inline;opacity:0.2;}
</style>
<g id="bg" class="st0">
	<rect x="0" y="0" class="st1" width="432" height="432"/>
</g>
<g id="Layer_1">
</g>
<g id="smalle">
</g>
<g id="BASIC">
</g>
<g id="smaller_circles_real">
</g>
<g id="drawings">
	<g id="Apple">
	</g>
	<g id="Caramel">
	</g>
	<g id="PB_Cup">
	</g>
	<g id="Gumdrop">
	</g>
	<g>
		<g>
			
				<radialGradient id="SVGID_1_" cx="343.9806213" cy="326.54776" r="82.8068161" gradientTransform="matrix(-1 0 0 -1 720 720)" gradientUnits="userSpaceOnUse">
				<stop  offset="0" style="stop-color:#1E7D80"/>
				<stop  offset="0.4388298" style="stop-color:#024E51"/>
				<stop  offset="0.5608507" style="stop-color:#004A4D"/>
				<stop  offset="1" style="stop-color:#003B3D"/>
			</radialGradient>
			<circle class="st103" cx="360" cy="360" r="65.4414062"/>
			<path class="st104" d="M360,296.5588684c34.9815674,0,63.4411011,28.4595642,63.4411011,63.4411316
				S394.9815674,423.4411316,360,423.4411316S296.5588989,394.9815674,296.5588989,360S325.0184326,296.5588684,360,296.5588684
				 M360,292.5588684c-37.2467041,0-67.4411011,30.1944275-67.4411011,67.4411316S322.7532959,427.4411316,360,427.4411316
				S427.4411011,397.2467041,427.4411011,360S397.2467041,292.5588684,360,292.5588684L360,292.5588684z"/>
		</g>
		<g>
			<path class="st105" d="M366.5615234,369.2480469h-1c-14.3320312,0-27.640625,8.1582031-34.1865234,20.8681641
				l-24.9599609-12.0332031c11.140625-22.2294922,34.2451172-36.5390625,59.1464844-36.5390625h1V317.484375l48.5175781,37.9121094
				l-48.5175781,37.9121094V369.2480469z"/>
			<g>
				<path class="st106" d="M367.5617676,319.5341797l45.8928833,35.861908l-45.8928833,35.861908v-21.0102234v-2h-2
					c-14.3782959,0-27.7530518,8.0031433-34.6187134,20.5496521l-23.171875-11.1705933
					c11.1393433-21.3778687,33.6038818-35.0829163,57.7905884-35.0829163h2v-2V319.5341797 M365.5617676,315.433136v25.1107788
					c-25.6166382,0-49.3604126,14.9167175-60.4887085,38.0024719l26.7566528,12.8987427
					c6.2076416-12.8769836,19.4486694-21.1973572,33.7320557-21.1973572v25.1112671l51.1410522-39.9629517L365.5617676,315.433136
					L365.5617676,315.433136z"/>
			</g>
		</g>
	</g>
	<g>
		<g>
			
				<radialGradient id="SVGID_00000080892999783773641040000000680712103577603994_" cx="343.111908" cy="180.7333069" r="87.2975388" gradientUnits="userSpaceOnUse">
				<stop  offset="0" style="stop-color:#1E7D80"/>
				<stop  offset="0.4388298" style="stop-color:#024E51"/>
				<stop  offset="0.5608507" style="stop-color:#004A4D"/>
				<stop  offset="1" style="stop-color:#003B3D"/>
			</radialGradient>
			
				<circle style="fill:url(#SVGID_00000080892999783773641040000000680712103577603994_);" cx="360" cy="215.9998779" r="68.9904175"/>
			<path class="st104" d="M360,149.0093536c36.9387817,0,66.9906616,30.0518951,66.9906616,66.9906464
				S396.9387817,282.9906616,360,282.9906616S293.0093384,252.9387817,293.0093384,216S323.0612183,149.0093536,360,149.0093536
				 M360,145.0093536c-39.2070312,0-70.9906616,31.7835846-70.9906616,70.9906464S320.7929688,286.9906616,360,286.9906616
				S430.9906616,255.2070618,430.9906616,216S399.2070312,145.0093536,360,145.0093536L360,145.0093536z"/>
		</g>
		<g>
			<path class="st108" d="M366.8544922,225.7871094h-1c-15.0830078,0-29.0888672,8.5966797-35.9628906,21.9833984
				l-26.3671875-12.7114258c11.7255859-23.4438477,36.0800781-38.5390625,62.3300781-38.5390625h1v-25.3823242
				l51.2089844,40.0161133l-51.2089844,40.0161133V225.7871094z"/>
			<path class="st109" d="M367.8544922,173.1885681l48.5844727,37.96521l-48.5844727,37.96521v-22.3318634v-2h-2
				c-15.1303711,0-29.2020874,8.4400482-36.3962402,21.6642303l-24.5794067-11.8491211
				c11.7260132-22.5933838,35.4401245-37.0823212,60.975647-37.0823212h2v-2V173.1885681 M365.8544922,169.0874939v26.4324188
				c-26.9649048,0-51.958313,15.7018127-63.6723022,40.0025787l28.164917,13.5776367
				c6.5343628-13.5547028,20.47229-22.3130035,35.5073853-22.3130035v26.4329376l53.8326416-42.0662842L365.8544922,169.0874939
				L365.8544922,169.0874939z"/>
		</g>
	</g>
	<g>
		<g>
			
				<radialGradient id="SVGID_00000156572521619303042470000016457389724331858086_" cx="343.111908" cy="36.733429" r="87.2977219" gradientUnits="userSpaceOnUse">
				<stop  offset="0" style="stop-color:#1E7D80"/>
				<stop  offset="0.4388298" style="stop-color:#024E51"/>
				<stop  offset="0.5608507" style="stop-color:#004A4D"/>
				<stop  offset="1" style="stop-color:#003B3D"/>
			</radialGradient>
			<circle style="fill:url(#SVGID_00000156572521619303042470000016457389724331858086_);" cx="360" cy="72" r="68.9904785"/>
			<path class="st104" d="M360,5.0093613c36.9387817,0,66.9906616,30.0518875,66.9906616,66.9906387
				S396.9387817,138.9906464,360,138.9906464S293.0093384,108.9387512,293.0093384,72S323.0612183,5.0093613,360,5.0093613
				 M360,1.0093613c-39.2070312,0-70.9906616,31.7835846-70.9906616,70.9906387S320.7929688,142.9906464,360,142.9906464
				S430.9906616,111.2070618,430.9906616,72S399.2070312,1.0093613,360,1.0093613L360,1.0093613z"/>
		</g>
		<g>
			<path class="st106" d="M366.8544922,81.7871094h-1c-15.0830078,0-29.0888672,8.5966797-35.9628906,21.9833984
				L303.5244141,91.059082C315.25,67.6152344,339.6044922,52.5200195,365.8544922,52.5200195h1V27.1376953l51.2089844,40.0161133
				l-51.2089844,40.0161133V81.7871094z"/>
			<path class="st105" d="M367.8544922,29.1885605l48.5844727,37.96521l-48.5844727,37.96521V82.7871323v-2h-2
				c-15.1304321,0-29.2021484,8.4400558-36.3962402,21.6642227l-24.5794067-11.8491058
				c11.7260132-22.5933914,35.4401245-37.0823364,60.975647-37.0823364h2v-2V29.1885605 M365.8544922,25.0874901v26.4324226
				c-26.9649048,0-51.958313,15.7017975-63.6723022,40.002594l28.164917,13.5776215
				c6.5343628-13.554718,20.47229-22.3129959,35.5073853-22.3129959v26.4329147l53.8326416-42.0662766L365.8544922,25.0874901
				L365.8544922,25.0874901z"/>
		</g>
	</g>
	<g>
		<g>
			
				<radialGradient id="SVGID_00000131341172318829669430000012215477295455390654_" cx="55.1119041" cy="180.7333069" r="87.2975388" gradientUnits="userSpaceOnUse">
				<stop  offset="0" style="stop-color:#1E7D80"/>
				<stop  offset="0.4388298" style="stop-color:#024E51"/>
				<stop  offset="0.5608507" style="stop-color:#004A4D"/>
				<stop  offset="1" style="stop-color:#003B3D"/>
			</radialGradient>
			
				<circle style="fill:url(#SVGID_00000131341172318829669430000012215477295455390654_);" cx="72" cy="215.9998779" r="68.9904175"/>
			<path class="st104" d="M72,149.0093536c36.9387817,0,66.9906616,30.0518951,66.9906616,66.9906464
				S108.9387817,282.9906616,72,282.9906616S5.0093384,252.9387817,5.0093384,216S35.0612183,149.0093536,72,149.0093536
				 M72,145.0093536c-39.2070618,0-70.9906616,31.7835846-70.9906616,70.9906464S32.7929382,286.9906616,72,286.9906616
				S142.9906616,255.2070618,142.9906616,216S111.2070312,145.0093536,72,145.0093536L72,145.0093536z"/>
		</g>
		<g>
			<path class="st108" d="M13.9365234,211.1538086l51.2089844-40.0161133v25.3823242h1
				c26.25,0,50.6044922,15.0952148,62.3300781,38.5390625l-26.3671875,12.7114258
				c-6.8740234-13.3867188-20.8798828-21.9833984-35.9628906-21.9833984h-1v25.3828125L13.9365234,211.1538086z"/>
			<path class="st109" d="M64.1455078,173.1885681v22.3313446v2h2c25.5355225,0,49.2496338,14.4889374,60.975647,37.0823212
				L102.541748,246.451355c-7.1941528-13.2241821-21.2658691-21.6642303-36.3962402-21.6642303h-2v2v22.3318634
				l-48.5844727-37.96521L64.1455078,173.1885681 M66.1455078,169.0874939l-53.8326416,42.0662842l53.8326416,42.0662842
				v-26.4329376c15.0350952,0,28.9730225,8.7583008,35.5073853,22.3130035l28.164917-13.5776367
				c-11.7139893-24.300766-36.7073975-40.0025787-63.6723022-40.0025787V169.0874939L66.1455078,169.0874939z"/>
		</g>
	</g>
	<g>
		<g>
			
				<radialGradient id="SVGID_00000060022439918865838070000004734230449791113385_" cx="55.9806213" cy="326.54776" r="82.8068161" gradientTransform="matrix(-1 0 0 -1 144 720)" gradientUnits="userSpaceOnUse">
				<stop  offset="0" style="stop-color:#1E7D80"/>
				<stop  offset="0.4388298" style="stop-color:#024E51"/>
				<stop  offset="0.5608507" style="stop-color:#004A4D"/>
				<stop  offset="1" style="stop-color:#003B3D"/>
			</radialGradient>
			<circle style="fill:url(#SVGID_00000060022439918865838070000004734230449791113385_);" cx="72" cy="360" r="65.4414062"/>
			<path class="st104" d="M72,296.5588684c34.9815674,0,63.4411011,28.4595642,63.4411011,63.4411316
				S106.9815674,423.4411316,72,423.4411316S8.5588684,394.9815674,8.5588684,360S37.0184326,296.5588684,72,296.5588684
				 M72,292.5588684c-37.2467041,0-67.4411316,30.1944275-67.4411316,67.4411316S34.7532959,427.4411316,72,427.4411316
				S139.4411011,397.2467041,139.4411011,360S109.2467041,292.5588684,72,292.5588684L72,292.5588684z"/>
		</g>
		<g>
			<path class="st105" d="M16.9208984,355.3964844l48.5175781-37.9121094v24.0595703h1
				c24.9013672,0,48.0058594,14.3095703,59.1464844,36.5390625L100.625,390.1162109
				c-6.5458984-12.7099609-19.8544922-20.8681641-34.1865234-20.8681641h-1v24.0605469L16.9208984,355.3964844z"/>
			<path class="st106" d="M64.4382324,319.5342102v21.0097046v2h2c24.1867065,0,46.6512451,13.7050476,57.7905884,35.0829163
				l-23.171875,11.1705933c-6.8656616-12.5465088-20.2404175-20.5496521-34.6187134-20.5496521h-2v2v21.0101929
				l-45.8928223-35.8618774L64.4382324,319.5342102 M66.4382324,315.433136l-51.1410217,39.9629517l51.1410217,39.9629517
				v-25.1112671c14.2833862,0,27.5244141,8.3203735,33.7320557,21.1973572l26.7566528-12.8987427
				c-11.1282959-23.0857544-34.8720703-38.0024719-60.4887085-38.0024719V315.433136L66.4382324,315.433136z"/>
		</g>
	</g>
	<g>
		<g>
			
				<radialGradient id="SVGID_00000154389572878226791580000002639480453043407013_" cx="55.1119041" cy="36.733429" r="87.2977219" gradientUnits="userSpaceOnUse">
				<stop  offset="0" style="stop-color:#1E7D80"/>
				<stop  offset="0.4388298" style="stop-color:#024E51"/>
				<stop  offset="0.5608507" style="stop-color:#004A4D"/>
				<stop  offset="1" style="stop-color:#003B3D"/>
			</radialGradient>
			<circle style="fill:url(#SVGID_00000154389572878226791580000002639480453043407013_);" cx="72" cy="72" r="68.9904785"/>
			<path class="st104" d="M72,5.0093613c36.9387817,0,66.9906616,30.0518875,66.9906616,66.9906387
				S108.9387817,138.9906464,72,138.9906464S5.0093384,108.9387512,5.0093384,72S35.0612183,5.0093613,72,5.0093613 M72,1.0093613
				C32.7929382,1.0093613,1.0093384,32.7929459,1.0093384,72S32.7929382,142.9906464,72,142.9906464
				S142.9906616,111.2070618,142.9906616,72S111.2070312,1.0093613,72,1.0093613L72,1.0093613z"/>
		</g>
		<g>
			<path class="st106" d="M13.9365234,67.1538086l51.2089844-40.0161133v25.3823242h1
				c26.25,0,50.6044922,15.0952148,62.3300781,38.5390625l-26.3671875,12.7114258
				C95.234375,90.3837891,81.2285156,81.7871094,66.1455078,81.7871094h-1v25.3828125L13.9365234,67.1538086z"/>
			<path class="st105" d="M64.1455078,29.1885605v22.3313522v2h2c25.5355225,0,49.2496338,14.488945,60.975647,37.0823364
				L102.541748,102.451355c-7.1940918-13.2241669-21.2658081-21.6642227-36.3962402-21.6642227h-2v2v22.3318481
				l-48.5844727-37.96521L64.1455078,29.1885605 M66.1455078,25.0874901L12.3128662,67.1537704l53.8326416,42.0662766V82.7871323
				c15.0350952,0,28.9730225,8.7582779,35.5073853,22.3129959l28.164917-13.5776215
				c-11.7139893-24.3007965-36.7073975-40.002594-63.6723022-40.002594V25.0874901L66.1455078,25.0874901z"/>
		</g>
	</g>
	<g>
		<g>
			
				<radialGradient id="SVGID_00000039854854705860834140000000137025584750639021_" cx="199.9806213" cy="326.54776" r="82.8068161" gradientTransform="matrix(-1 0 0 -1 432 720)" gradientUnits="userSpaceOnUse">
				<stop  offset="0" style="stop-color:#2D801E"/>
				<stop  offset="0.4388298" style="stop-color:#0E5102"/>
				<stop  offset="0.5608507" style="stop-color:#0C4D00"/>
				<stop  offset="1" style="stop-color:#093D00"/>
			</radialGradient>
			<circle style="fill:url(#SVGID_00000039854854705860834140000000137025584750639021_);" cx="216" cy="360" r="65.4414062"/>
			<g>
				<path class="st115" d="M216,296.5588684c34.9815674,0,63.4411011,28.4595642,63.4411011,63.4411316
					S250.9815674,423.4411316,216,423.4411316S152.5588989,394.9815674,152.5588989,360S181.0184326,296.5588684,216,296.5588684
					 M216,292.5588684c-37.2467041,0-67.4411011,30.1944275-67.4411011,67.4411316S178.7532959,427.4411316,216,427.4411316
					S283.4411011,397.2467041,283.4411011,360S253.2467041,292.5588684,216,292.5588684L216,292.5588684z"/>
			</g>
		</g>
		<g>
			<polygon class="st116" points="200.6123047,409.8837891 200.6123047,359.8583984 173.9560547,359.8583984 216,306.0537109 
				258.0439453,359.8583984 231.3876953,359.8583984 231.3876953,409.8837891 			"/>
			<path class="st117" d="M216,307.6782227l39.9937134,51.1803589h-23.6062012h-2v2v48.0253601h-28.7750244v-48.0253601v-2h-2
				h-23.6062012L216,307.6782227 M216,304.4300537l-44.0947876,56.4285278h27.7072754v50.0253601h32.7750244v-50.0253601h27.7072754
				L216,304.4300537L216,304.4300537z"/>
		</g>
	</g>
	<g>
		
			<radialGradient id="SVGID_00000120555315668363606960000004778438209115651986_" cx="199.111908" cy="36.733429" r="87.2977219" gradientUnits="userSpaceOnUse">
			<stop  offset="0" style="stop-color:#2D801E"/>
			<stop  offset="0.4388298" style="stop-color:#0E5102"/>
			<stop  offset="0.5608507" style="stop-color:#0C4D00"/>
			<stop  offset="1" style="stop-color:#093D00"/>
		</radialGradient>
		<circle style="fill:url(#SVGID_00000120555315668363606960000004778438209115651986_);" cx="216" cy="72" r="68.9904785"/>
		<path class="st115" d="M216,5.0093613c36.9387817,0,66.9906616,30.0518875,66.9906616,66.9906387
			S252.9387817,138.9906464,216,138.9906464S149.0093384,108.9387512,149.0093384,72S179.0612183,5.0093613,216,5.0093613
			 M216,1.0093613c-39.2070312,0-70.9906616,31.7835846-70.9906616,70.9906387S176.7929688,142.9906464,216,142.9906464
			S286.9906616,111.2070618,286.9906616,72S255.2070312,1.0093613,216,1.0093613L216,1.0093613z"/>
	</g>
	<g>
		<polygon class="st117" points="199.75,127.0283203 199.75,74.3701172 171.6347656,74.3701172 216,17.5957031 
			260.3652344,74.3701172 232.25,74.3701172 232.25,127.0283203 		"/>
		<path class="st116" d="M216,19.2198181l42.3145142,54.1502609H233.25h-2v2v50.658287h-30.5V75.370079v-2h-2h-25.0645142
			L216,19.2198181 M216,15.9716415L169.5844116,75.370079H198.75v52.658287h34.5V75.370079h29.1655884L216,15.9716415
			L216,15.9716415z"/>
	</g>
	<g>
		<g>
			
				<radialGradient id="SVGID_00000110464836503603564730000004208583120106663350_" cx="199.111908" cy="180.7333069" r="87.2975388" gradientUnits="userSpaceOnUse">
				<stop  offset="0" style="stop-color:#2D801E"/>
				<stop  offset="0.4388298" style="stop-color:#0E5102"/>
				<stop  offset="0.5608507" style="stop-color:#0C4D00"/>
				<stop  offset="1" style="stop-color:#093D00"/>
			</radialGradient>
			
				<circle style="fill:url(#SVGID_00000110464836503603564730000004208583120106663350_);" cx="216" cy="215.9998779" r="68.9904175"/>
			<path class="st115" d="M216,149.0093536c36.9387817,0,66.9906616,30.0518951,66.9906616,66.9906464
				S252.9387817,282.9906616,216,282.9906616S149.0093384,252.9387817,149.0093384,216S179.0612183,149.0093536,216,149.0093536
				 M216,145.0093536c-39.2070312,0-70.9906616,31.7835846-70.9906616,70.9906464S176.7929688,286.9906616,216,286.9906616
				S286.9906616,255.2070618,286.9906616,216S255.2070312,145.0093536,216,145.0093536L216,145.0093536z"/>
		</g>
		<g>
			<polygon class="st120" points="199.75,271.0283203 199.75,218.3701172 171.6347656,218.3701172 216,161.5957031 
				260.3652344,218.3701172 232.25,218.3701172 232.25,271.0283203 			"/>
			<path class="st121" d="M216,163.2198181l42.3145142,54.1502686H233.25h-2v2v50.6582642h-30.5v-50.6582642v-2h-2h-25.0645142
				L216,163.2198181 M216,159.9716339l-46.4155884,59.3984528H198.75v52.6582642h34.5v-52.6582642h29.1655884L216,159.9716339
				L216,159.9716339z"/>
		</g>
	</g>
</g>
<g id="bubble" class="st0">
</g>
</svg>
